<?xml version="1.0" encoding="UTF-8"?>
<svg id="Layer_2" data-name="Layer 2" xmlns="http://www.w3.org/2000/svg" viewBox="0 0 690.12 690.12">
  <defs>
    <style>
      .cls-1 {
        fill: #222;
      }

      .cls-2 {
        fill: #fcfcfc;
      }
    </style>
  </defs>
  <g id="Layer_1-2" data-name="Layer 1">
    <path class="cls-1" d="M0,82.97v524.18c0,45.82,37.15,82.97,82.97,82.97h524.18c45.82,0,82.97-37.15,82.97-82.97V82.97c0-45.82-37.15-82.97-82.97-82.97H82.97C37.15,0,0,37.15,0,82.97Z"/>
    <g>
      <path class="cls-2" d="M315.5,204.76c-12.84-11.53-28.73-18.07-46.02-18.88-30.95-1.44-62.6.53-93.65-.28-34.15,1.08-63.77,26.54-69.54,60.26-7.68,44.95,22.55,84.02,67.98,86.72,31.67-.78,63.9,1.13,95.47-.28,15.22-.68,27.83-4.79,40.28-13.56,37.62-26.52,39.27-83.63,5.48-113.98ZM281.51,284.51c-7.1,4.12-13.5,3.77-21.37,3.84-27.57.24-55.16-.15-82.73.01-7.4-.73-14.77-3.31-20.07-8.67-13.06-13.22-10.19-35.94,5.55-45.64,7.57-4.67,14.27-4.69,22.83-4.71,22.62-.07,45.1-.15,67.66,0,9.72.06,17.92-1.03,26.92,3.76,19.84,10.56,20.85,40.02,1.22,51.43Z"/>
      <path class="cls-2" d="M270.54,358.05c-32.07-1.23-64.91.95-97.05,0-43.52,3.34-72.33,39.2-68.01,82.59,3.46,34.74,33.47,62.65,68.01,65.17h95.49c23.49-1.44,45.5-13.41,58.6-32.96,19.17-28.61,14.82-70.05-9.67-94.15-12.29-12.09-30.05-19.99-47.37-20.65ZM281.93,456.86c-8.69,5.31-17.28,4.4-27.02,4.46-19.6.12-39.35.03-59.05,0-14.24-.02-28.59,2-39.31-9.44-13.3-14.2-8.46-38.29,9.1-46.52,5.43-2.54,9.31-2.79,15.15-3.06,23.03-1.07,46.47.05,69.45-.01,11.41-.03,22.05-1.69,32.2,4.73,17.91,11.34,17.63,38.76-.52,49.84Z"/>
      <path class="cls-2" d="M561.74,360.03c-.05-1.66.28-4.25,0-5.73-.08-.43-.27-.72-.7-.87l-130.2.02c-39.66,3.89-64.8,33.42-66.54,72.62l.12,79.21,1.82.52c12.38-.46,25.15.58,37.48,0,.64-.03,4.03-.32,4.17-.52.52-27.33.32-54.68.41-82.05,2.19-18.55,15.73-26.59,33.38-26.7,34.16-.22,68.35.13,102.49,0,5.68-.02,11.4.14,17.05-.12.47-.42.48-.97.53-1.55.76-8.42-.03-19.16-.02-27.85,0-2.36.08-4.62,0-7Z"/>
      <path class="cls-2" d="M561.23,181.58l-111.48-.14c-32.87,1.58-62.88,18.76-76.9,48.99-6.2,13.36-8.01,25.77-8.53,40.37-.56,15.83-1.03,33.91,0,49.66.1,1.57-.79,3.74,1.41,3.53l195.26-.13.64-.4c.25-6.2.11-12.41.12-18.61,0-1.3,0-2.58,0-3.88-.01-6.72.14-13.48-.12-20.17l-.57-.47-152.88-.6c-.21-.14-.38-.33-.48-.56-.43-.94-.26-7.88-.19-9.43.61-12.84,4.39-25.11,14.14-33.84,8.62-7.71,19.46-11.09,30.97-11.04l108.45-.03c.56-.19.71-1.1.71-1.64-.89-12.92,1.14-27.34,0-40.08-.05-.58-.06-1.13-.53-1.55Z"/>
    </g>
  </g>
</svg>