<?xml version="1.0" encoding="UTF-8"?>
<svg id="Layer_2" data-name="Layer 2" xmlns="http://www.w3.org/2000/svg" viewBox="0 0 1128.11 1128.1">
  <defs>
    <style>
      .cls-1 {
        fill: #222;
      }

      .cls-2 {
        fill: #fcfcfc;
      }

      .cls-3 {
        fill: #555;
      }
    </style>
  </defs>
  <g id="Layer_1-2" data-name="Layer 1">
    <path class="cls-2" d="M0,135.62v856.86c0,74.9,60.72,135.62,135.62,135.62h856.86c74.9,0,135.62-60.72,135.62-135.62V135.62c0-74.9-60.72-135.62-135.62-135.62H135.62C60.72,0,0,60.72,0,135.62Z"/>
    <g>
      <path class="cls-3" d="M515.74,334.72c-20.99-18.85-46.97-29.54-75.23-30.86-50.59-2.36-102.33.86-153.08-.46-55.82,1.77-104.25,43.38-113.67,98.51-12.56,73.47,36.86,137.34,111.12,141.75,51.76-1.28,104.46,1.85,156.06-.46,24.87-1.11,45.5-7.82,65.85-22.17,61.49-43.35,64.19-136.7,8.96-186.31ZM460.17,465.07c-11.61,6.74-22.06,6.16-34.93,6.27-45.07.39-90.16-.24-135.24.02-12.09-1.2-24.15-5.41-32.81-14.18-21.34-21.61-16.66-58.75,9.07-74.61,12.37-7.63,23.32-7.66,37.33-7.71,36.98-.11,73.73-.24,110.6,0,15.89.1,29.29-1.69,44,6.14,32.43,17.26,34.09,65.42,1.99,84.06Z"/>
      <path class="cls-3" d="M442.24,585.29c-52.42-2-106.1,1.56-158.65,0-71.15,5.46-118.24,64.08-111.17,135.01,5.66,56.79,54.71,102.41,111.17,106.53h156.09c38.39-2.36,74.38-21.92,95.79-53.88,31.33-46.77,24.23-114.52-15.8-153.9-20.09-19.76-49.13-32.68-77.44-33.76ZM460.85,746.8c-14.21,8.67-28.24,7.19-44.16,7.29-32.05.2-64.32.05-96.53,0-23.27-.04-46.73,3.28-64.26-15.44-21.73-23.21-13.84-62.59,14.87-76.04,8.87-4.16,15.22-4.56,24.76-5.01,37.64-1.75,75.96.08,113.52-.02,18.65-.05,36.04-2.77,52.64,7.74,29.28,18.53,28.82,63.36-.85,81.47Z"/>
      <path class="cls-3" d="M918.25,588.52c-.09-2.71.46-6.95,0-9.36-.13-.7-.44-1.18-1.14-1.41l-212.83.04c-64.83,6.35-105.93,54.62-108.77,118.72l.19,126.48c23.69,0,47.37,0,71.06.01.86-44.68.53-86.39.67-131.12,3.58-30.33,25.71-43.47,54.57-43.65,55.85-.35,111.73.21,167.54,0,9.28-.03,18.64.24,27.88-.19.76-.68.78-1.59.87-2.54,1.24-13.76-.05-31.32-.04-45.53,0-3.85.12-7.55,0-11.44Z"/>
    </g>
    <path class="cls-1" d="M917.42,296.82l-182.24-.23c-53.73,2.58-102.79,30.66-125.71,80.09-10.13,21.84-13.1,42.12-13.94,66-.91,25.88-1.69,55.44,0,81.17.17,2.57-1.29,6.12,2.3,5.78l319.18-.21,1.05-.65c.41-10.13.17-20.28.19-30.42,0-2.12,0-4.22,0-6.34-.02-10.98.23-22.04-.19-32.97l-.94-.77-249.91-.98c-.34-.23-.62-.53-.79-.91-.7-1.54-.43-12.89-.31-15.41,1-20.99,7.17-41.05,23.12-55.32,14.08-12.6,31.81-18.13,50.63-18.05l177.27-.05c.92-.31,1.17-1.8,1.15-2.67-1.45-21.12,1.86-44.69,0-65.52-.08-.94-.1-1.85-.87-2.54Z"/>
  </g>
</svg>